<?xml version="1.0" standalone="no"?>
<!DOCTYPE svg PUBLIC "-//W3C//DTD SVG 20010904//EN"
 "http://www.w3.org/TR/2001/REC-SVG-20010904/DTD/svg10.dtd">
<svg version="1.0" xmlns="http://www.w3.org/2000/svg"
 width="1139.000000pt" height="743.000000pt" viewBox="0 0 1139.000000 743.000000"
 preserveAspectRatio="xMidYMid meet">

<g transform="translate(0.000000,743.000000) scale(0.100000,-0.100000)"
fill="#000000" stroke="none">
<path d="M0 3715 l0 -3715 5695 0 5695 0 0 3715 0 3715 -5695 0 -5695 0 0
-3715z m6015 2295 c434 -92 801 -328 1063 -682 125 -169 191 -299 247 -483 59
-199 70 -282 70 -550 -1 -211 -3 -253 -23 -345 -51 -235 -151 -467 -279 -650
-93 -133 -310 -346 -438 -432 -107 -71 -307 -172 -415 -208 -164 -55 -457
-101 -525 -82 -25 7 -14 10 60 17 158 13 177 22 40 19 l-130 -3 110 9 c329 25
644 144 900 339 120 92 335 316 335 350 0 6 5 11 10 11 6 0 10 4 10 10 0 5 25
51 57 102 121 200 188 381 228 615 17 103 29 288 16 258 -4 -11 -11 -62 -14
-112 -15 -217 -113 -532 -225 -727 -166 -289 -458 -553 -744 -675 -64 -27 -61
-18 5 15 28 15 61 35 72 46 11 11 58 45 105 75 146 95 293 232 370 343 18 25
3 15 -54 -37 -44 -40 -82 -70 -86 -68 -4 3 -16 -5 -26 -16 -11 -12 -32 -30
-49 -41 -16 -11 -8 1 20 25 27 25 52 45 56 44 10 -3 141 154 191 228 120 181
219 422 248 603 6 37 16 91 21 121 12 73 12 338 -2 420 -36 230 -75 360 -150
506 -100 195 -203 335 -339 460 -284 260 -635 408 -1020 430 -183 10 -433 -34
-630 -112 -369 -146 -670 -422 -848 -778 -101 -202 -154 -401 -173 -653 -6
-75 -13 -139 -15 -141 -12 -12 -3 144 20 346 5 43 4 44 -4 13 -5 -19 -14 -87
-21 -150 -19 -191 -29 -211 -24 -50 4 132 24 259 61 384 6 21 6 21 -10 1 -25
-32 -19 -2 20 103 175 467 520 831 959 1010 111 45 253 85 360 101 39 6 81 13
95 15 14 3 108 3 210 1 140 -3 209 -9 285 -25z m664 -579 c19 -12 2 -34 -39
-51 -16 -7 -27 -16 -24 -21 3 -5 -23 -22 -58 -38 -35 -16 -57 -30 -50 -30 18
-1 14 -21 -5 -21 -9 0 -14 -3 -11 -6 3 -3 58 5 122 17 95 19 118 21 128 10 11
-10 8 -16 -11 -29 -13 -10 -33 -27 -45 -39 -13 -12 -45 -32 -71 -43 -37 -16
-46 -23 -35 -30 13 -8 12 -10 0 -14 -39 -12 -42 -16 -12 -13 54 6 31 -15 -44
-40 -71 -23 -68 -24 56 -6 72 10 41 -6 -76 -38 -60 -16 -132 -36 -160 -44
l-51 -15 -5 -47 c-4 -39 -23 -77 -105 -208 -55 -88 -184 -304 -288 -480 -189
-323 -233 -393 -175 -276 17 34 29 65 27 67 -4 5 -144 -219 -172 -276 -48 -96
-220 -371 -241 -385 -13 -8 -37 -42 -54 -74 -31 -63 -90 -121 -156 -153 l-41
-20 -69 32 c-111 54 -177 127 -257 290 -37 74 -74 162 -82 195 -21 82 -19 229
3 277 22 49 132 162 145 149 8 -8 -9 -124 -30 -196 -4 -14 8 -7 39 23 24 23
47 42 51 42 13 0 7 -57 -19 -187 -20 -99 -25 -146 -21 -208 5 -76 7 -81 41
-112 55 -50 83 -45 146 25 77 85 198 273 388 602 93 162 233 403 310 535 77
132 138 242 137 243 -2 2 -42 -8 -90 -23 -48 -14 -93 -24 -101 -21 -9 4 -14
22 -14 55 0 65 -7 81 -36 81 -25 0 -26 2 -29 66 0 23 -10 67 -20 98 -13 39
-16 59 -9 66 19 19 528 159 799 220 277 62 292 65 314 51z m-2409 -2016 c134
-209 326 -407 513 -530 31 -21 57 -40 57 -42 0 -9 -65 35 -163 108 -179 134
-349 330 -457 524 -45 82 -26 60 50 -60z m616 -531 c18 -14 18 -14 -6 -3 -31
14 -36 19 -24 19 6 0 19 -7 30 -16z m150 -82 c-5 -4 -106 46 -106 53 0 3 25
-7 55 -22 30 -15 53 -29 51 -31z m1219 38 c-3 -5 -12 -10 -18 -10 -7 0 -6 4 3
10 19 12 23 12 15 0z m-1130 -71 c22 -10 29 -16 15 -13 -28 7 -80 33 -65 33 6
0 28 -9 50 -20z m102 -35 c-3 -3 -12 -4 -19 -1 -8 3 -5 6 6 6 11 1 17 -2 13
-5z m-66 -38 c35 -13 88 -29 117 -36 29 -7 51 -14 48 -17 -6 -7 -143 32 -196
56 -62 27 -46 26 31 -3z m176 8 c-3 -3 -12 -4 -19 -1 -8 3 -5 6 6 6 11 1 17
-2 13 -5z m732 -28 c-2 -2 -17 -6 -34 -10 -22 -5 -26 -4 -15 4 14 9 59 15 49
6z m-134 -26 c-16 -4 -48 -7 -70 -7 l-40 0 45 7 c25 4 56 7 70 7 22 1 21 0 -5
-7z m-162 -17 c-24 -2 -62 -2 -85 0 -24 2 -5 4 42 4 47 0 66 -2 43 -4z m-145
-20 c-21 -2 -55 -2 -75 0 -21 2 -4 4 37 4 41 0 58 -2 38 -4z m1227 -662 c149
-65 182 -305 58 -423 -57 -54 -161 -74 -256 -47 -153 42 -212 286 -100 410 78
86 187 107 298 60z m721 -7 c176 -83 164 -382 -18 -458 -43 -18 -136 -21 -191
-5 -153 42 -211 279 -99 409 75 89 191 109 308 54z m-4236 -166 c0 -218 -11
-262 -69 -292 -46 -24 -139 -20 -189 10 -1 1 3 14 10 28 10 23 16 26 37 20 47
-14 91 -8 114 15 21 20 22 31 25 216 l4 195 34 0 34 0 0 -192z m550 162 l0
-30 -100 0 -100 0 0 -80 0 -80 85 0 85 0 0 -30 0 -30 -85 0 -85 0 0 -75 0 -74
98 -3 97 -3 0 -30 0 -30 -135 0 -135 0 -3 235 c-1 129 0 240 2 247 4 10 40 13
141 13 l135 0 0 -30z m481 20 c93 -26 147 -101 156 -213 8 -92 -17 -165 -72
-216 -50 -46 -106 -61 -230 -61 l-85 0 0 250 0 250 98 0 c53 0 113 -5 133 -10z
m660 -5 c92 -33 141 -116 140 -240 0 -44 -7 -81 -21 -112 -44 -101 -91 -125
-252 -131 l-118 -4 0 251 0 251 104 0 c68 0 119 -5 147 -15z m669 -15 l0 -30
-100 0 -100 0 0 -80 0 -80 85 0 85 0 0 -30 0 -30 -85 0 -85 0 0 -75 0 -74 98
-3 97 -3 3 -32 3 -33 -135 0 -136 0 0 250 0 250 135 0 135 0 0 -30z m478 10
c46 -21 72 -64 72 -117 0 -33 -34 -93 -52 -93 -7 0 4 -10 24 -22 43 -25 63
-65 60 -122 -1 -48 -26 -85 -73 -108 -26 -14 -59 -18 -146 -18 l-113 0 0 250
0 250 93 0 c69 0 102 -5 135 -20z m1842 -85 c0 -102 1 -105 23 -105 16 1 45
30 106 105 l85 105 45 0 44 0 -20 -22 c-43 -49 -173 -209 -173 -214 0 -4 41
-59 91 -123 51 -64 96 -122 102 -128 7 -10 -1 -13 -36 -13 l-46 0 -88 115
c-66 86 -94 115 -110 115 -23 0 -23 -2 -23 -115 l0 -115 -35 0 -35 0 0 250 0
250 35 0 35 0 0 -105z"/>
<path d="M4101 4714 c0 -11 3 -14 6 -6 3 7 2 16 -1 19 -3 4 -6 -2 -5 -13z"/>
<path d="M4091 4674 c0 -11 3 -14 6 -6 3 7 2 16 -1 19 -3 4 -6 -2 -5 -13z"/>
<path d="M7353 4430 c0 -30 2 -43 4 -27 2 15 2 39 0 55 -2 15 -4 2 -4 -28z"/>
<path d="M7059 3303 c-13 -16 -12 -17 4 -4 16 13 21 21 13 21 -2 0 -10 -8 -17
-17z"/>
<path d="M7029 3263 c-13 -16 -12 -17 4 -4 16 13 21 21 13 21 -2 0 -10 -8 -17
-17z"/>
<path d="M6989 3213 c-13 -16 -12 -17 4 -4 9 7 17 15 17 17 0 8 -8 3 -21 -13z"/>
<path d="M6875 3088 l-80 -83 83 80 c45 44 82 81 82 82 0 8 -11 -3 -85 -79z"/>
<path d="M6764 2988 l-19 -23 23 19 c12 11 22 21 22 23 0 8 -8 2 -26 -19z"/>
<path d="M6688 2932 c-64 -51 -72 -61 -17 -24 38 25 81 64 68 61 -2 0 -25 -17
-51 -37z"/>
<path d="M6028 2633 c7 -3 16 -2 19 1 4 3 -2 6 -13 5 -11 0 -14 -3 -6 -6z"/>
<path d="M5963 2623 c9 -2 23 -2 30 0 6 3 -1 5 -18 5 -16 0 -22 -2 -12 -5z"/>
<path d="M4974 3276 c11 -9 29 -16 40 -15 17 1 16 2 -6 9 -14 4 -32 11 -40 15
-7 3 -4 -1 6 -9z"/>
<path d="M6689 1900 c-74 -22 -119 -89 -119 -178 0 -90 35 -144 114 -177 70
-29 159 -1 209 67 22 30 33 108 23 163 -8 43 -59 103 -103 121 -35 15 -83 17
-124 4z"/>
<path d="M7395 1900 c-41 -13 -91 -63 -106 -107 -16 -49 -6 -149 19 -182 26
-35 78 -69 117 -77 43 -8 107 11 146 43 86 73 78 239 -16 302 -39 27 -111 36
-160 21z"/>
<path d="M4210 1726 l0 -186 66 0 c73 0 119 17 147 55 26 36 38 116 27 175
-18 96 -58 128 -171 137 l-69 6 0 -187z"/>
<path d="M4858 1904 c-5 -4 -8 -88 -8 -186 l0 -178 68 0 c88 0 130 21 160 80
15 31 22 61 21 100 -1 121 -49 175 -164 186 -38 3 -73 3 -77 -2z"/>
<path d="M6020 1836 l0 -76 64 0 c56 0 67 3 80 22 22 32 20 81 -4 103 -14 12
-41 20 -80 23 l-60 4 0 -76z"/>
<path d="M6020 1615 l0 -85 48 0 c78 0 122 17 137 52 29 70 -22 118 -127 118
l-58 0 0 -85z"/>
</g>
</svg>
